# xmcd
#
# Track frame offsets: 
#        150
#        16414
#        30474
#        41071
#        70005
#        91377
#        107298
#        122360
#        142996
#        155888
#        172644
#        188995
#        210613
#        234413
#        258916
#        280722
#
# Disc length: 4074 seconds
#
# Revision: 6
# Processed by: cddbd v1.5.2PL0 Copyright (c) Steve Scherf et al.
# Submitted via: ExactAudioCopy v0.99pb5
#
DISCID=c80fe810
DTITLE=Lambchop - Tools In The Dryer (A-Sides, B-Sides, Live Tracks An
DTITLE=d Remixes) (Merge Records,  MRG 200)
DYEAR=2001
DGENRE=Alternative
TTITLE0=Nine
TTITLE1=Whitey 
TTITLE2=Cigaretiquette
TTITLE3=Miss Prissy
TTITLE4=The Petrified Florist 
TTITLE5=Each With A Bag Of Fries 
TTITLE6=All Over The World 
TTITLE7=Flowers Of Memory 
TTITLE8=Scared Out Of My Shoes
TTITLE9=Style Monkeys 
TTITLE10=The Militant (Mark Robinson Remix)
TTITLE11=Up With People (Zero 7 Reprise Remix)
TTITLE12=Give Me Your Love (Doppelganger Remix)
TTITLE13=Love TKO 
TTITLE14=Or Thousands Of Prizes 
TTITLE15=Moody Fucker 
EXTD=MRG 200 YEAR: 2001
EXTT0=
EXTT1=
EXTT2=
EXTT3=
EXTT4=
EXTT5=
EXTT6=
EXTT7=
EXTT8=
EXTT9=
EXTT10=
EXTT11=
EXTT12=
EXTT13=
EXTT14=
EXTT15=
PLAYORDER=
